<?xml version="1.0" encoding="utf-8" standalone="no"?>
<!DOCTYPE svg PUBLIC "-//W3C//DTD SVG 1.1//EN"
  "http://www.w3.org/Graphics/SVG/1.1/DTD/svg11.dtd">
<svg xmlns:xlink="http://www.w3.org/1999/xlink" width="842.4pt" height="274.157813pt" viewBox="0 0 842.4 274.157813" xmlns="http://www.w3.org/2000/svg" version="1.1">
 <metadata>
  <rdf:RDF xmlns:dc="http://purl.org/dc/elements/1.1/" xmlns:cc="http://creativecommons.org/ns#" xmlns:rdf="http://www.w3.org/1999/02/22-rdf-syntax-ns#">
   <cc:Work>
    <dc:type rdf:resource="http://purl.org/dc/dcmitype/StillImage"/>
    <dc:date>2026-05-05T20:26:59.621211</dc:date>
    <dc:format>image/svg+xml</dc:format>
    <dc:creator>
     <cc:Agent>
      <dc:title>Matplotlib v3.7.5, https://matplotlib.org/</dc:title>
     </cc:Agent>
    </dc:creator>
   </cc:Work>
  </rdf:RDF>
 </metadata>
 <defs>
  <style type="text/css">*{stroke-linejoin: round; stroke-linecap: butt}</style>
 </defs>
 <g id="figure_1">
  <g id="patch_1">
   <path d="M 0 274.157813 
L 842.4 274.157813 
L 842.4 0 
L 0 0 
z
" style="fill: #ffffff"/>
  </g>
  <g id="axes_1">
   <g id="table_1">
    <g id="patch_2">
     <path d="M 7.2 102.09456 
L 145.2 102.09456 
L 145.2 83.173259 
L 7.2 83.173259 
z
" style="fill: #dce6f5; stroke: #000000; stroke-linejoin: miter"/>
    </g>
    <g id="text_1">
     <!-- Model -->
     <g transform="translate(58.753906 95.393285) scale(0.1 -0.1)">
      <defs>
       <path id="DejaVuSerif-Bold-4d" d="M 269 0 
L 269 378 
L 863 378 
L 863 4288 
L 269 4288 
L 269 4666 
L 2194 4666 
L 3525 1672 
L 4863 4666 
L 6784 4666 
L 6784 4288 
L 6188 4288 
L 6188 378 
L 6784 378 
L 6784 0 
L 4384 0 
L 4384 378 
L 4978 378 
L 4978 3938 
L 3531 684 
L 2741 684 
L 1300 3938 
L 1300 378 
L 1894 378 
L 1894 0 
L 269 0 
z
" transform="scale(0.015625)"/>
       <path id="DejaVuSerif-Bold-6f" d="M 2138 263 
Q 2488 263 2630 563 
Q 2772 863 2772 1663 
Q 2772 2463 2631 2761 
Q 2491 3059 2138 3059 
Q 1784 3059 1640 2757 
Q 1497 2456 1497 1663 
Q 1497 869 1640 566 
Q 1784 263 2138 263 
z
M 2138 -91 
Q 1259 -91 761 376 
Q 263 844 263 1663 
Q 263 2484 761 2948 
Q 1259 3413 2138 3413 
Q 3019 3413 3516 2948 
Q 4013 2484 4013 1663 
Q 4013 844 3514 376 
Q 3016 -91 2138 -91 
z
" transform="scale(0.015625)"/>
       <path id="DejaVuSerif-Bold-64" d="M 2747 1497 
L 2747 1825 
Q 2747 2406 2597 2665 
Q 2447 2925 2119 2925 
Q 1775 2925 1636 2651 
Q 1497 2378 1497 1663 
Q 1497 947 1637 672 
Q 1778 397 2119 397 
Q 2447 397 2597 656 
Q 2747 916 2747 1497 
z
M 3853 378 
L 4325 378 
L 4325 0 
L 2747 0 
L 2747 422 
Q 2606 163 2367 36 
Q 2128 -91 1778 -91 
Q 1072 -91 667 378 
Q 263 847 263 1663 
Q 263 2481 667 2947 
Q 1072 3413 1778 3413 
Q 2128 3413 2367 3286 
Q 2606 3159 2747 2900 
L 2747 4488 
L 2272 4488 
L 2272 4863 
L 3853 4863 
L 3853 378 
z
" transform="scale(0.015625)"/>
       <path id="DejaVuSerif-Bold-65" d="M 2566 1875 
Q 2566 2531 2444 2795 
Q 2322 3059 2028 3059 
Q 1744 3059 1620 2800 
Q 1497 2541 1497 1931 
L 1497 1875 
L 2566 1875 
z
M 3781 1503 
L 1497 1503 
L 1497 1478 
Q 1497 834 1690 548 
Q 1884 263 2316 263 
Q 2675 263 2897 453 
Q 3119 644 3181 1006 
L 3700 1006 
Q 3566 441 3166 175 
Q 2766 -91 2047 -91 
Q 1184 -91 723 364 
Q 263 819 263 1663 
Q 263 2488 734 2950 
Q 1206 3413 2047 3413 
Q 2872 3413 3312 2927 
Q 3753 2441 3781 1503 
z
" transform="scale(0.015625)"/>
       <path id="DejaVuSerif-Bold-6c" d="M 1797 378 
L 2272 378 
L 2272 0 
L 219 0 
L 219 378 
L 691 378 
L 691 4488 
L 219 4488 
L 219 4863 
L 1797 4863 
L 1797 378 
z
" transform="scale(0.015625)"/>
      </defs>
      <use xlink:href="#DejaVuSerif-Bold-4d"/>
      <use xlink:href="#DejaVuSerif-Bold-6f" x="110.693359"/>
      <use xlink:href="#DejaVuSerif-Bold-64" x="177.392578"/>
      <use xlink:href="#DejaVuSerif-Bold-65" x="247.314453"/>
      <use xlink:href="#DejaVuSerif-Bold-6c" x="310.9375"/>
     </g>
    </g>
    <g id="patch_3">
     <path d="M 145.2 102.09456 
L 283.2 102.09456 
L 283.2 83.173259 
L 145.2 83.173259 
z
" style="fill: #dce6f5; stroke: #000000; stroke-linejoin: miter"/>
    </g>
    <g id="text_2">
     <!-- Preprocess -->
     <g transform="translate(183.303125 95.393285) scale(0.1 -0.1)">
      <defs>
       <path id="DejaVuSerif-Bold-50" d="M 300 0 
L 300 378 
L 897 378 
L 897 4288 
L 300 4288 
L 300 4666 
L 2956 4666 
Q 3734 4666 4193 4295 
Q 4653 3925 4653 3303 
Q 4653 2678 4192 2304 
Q 3731 1931 2956 1931 
L 2100 1931 
L 2100 378 
L 2853 378 
L 2853 0 
L 300 0 
z
M 2100 2309 
L 2450 2309 
Q 2856 2309 3098 2579 
Q 3341 2850 3341 3303 
Q 3341 3753 3100 4020 
Q 2859 4288 2450 4288 
L 2100 4288 
L 2100 2309 
z
" transform="scale(0.015625)"/>
       <path id="DejaVuSerif-Bold-72" d="M 3438 3359 
L 3438 2369 
L 3084 2369 
Q 3066 2634 2941 2764 
Q 2816 2894 2578 2894 
Q 2216 2894 2006 2575 
Q 1797 2256 1797 1691 
L 1797 378 
L 2400 378 
L 2400 0 
L 219 0 
L 219 378 
L 691 378 
L 691 2944 
L 184 2944 
L 184 3322 
L 1797 3322 
L 1797 2731 
Q 1959 3078 2226 3245 
Q 2494 3413 2881 3413 
Q 2978 3413 3117 3398 
Q 3256 3384 3438 3359 
z
" transform="scale(0.015625)"/>
       <path id="DejaVuSerif-Bold-70" d="M 1728 1825 
L 1728 1497 
Q 1728 916 1876 656 
Q 2025 397 2356 397 
Q 2697 397 2836 672 
Q 2975 947 2975 1663 
Q 2975 2378 2836 2651 
Q 2697 2925 2356 2925 
Q 2025 2925 1876 2665 
Q 1728 2406 1728 1825 
z
M 622 2944 
L 147 2944 
L 147 3322 
L 1728 3322 
L 1728 2900 
Q 1869 3159 2106 3286 
Q 2344 3413 2694 3413 
Q 3403 3413 3811 2945 
Q 4219 2478 4219 1663 
Q 4219 847 3811 378 
Q 3403 -91 2694 -91 
Q 2344 -91 2106 36 
Q 1869 163 1728 422 
L 1728 -953 
L 2241 -953 
L 2241 -1331 
L 147 -1331 
L 147 -953 
L 622 -953 
L 622 2944 
z
" transform="scale(0.015625)"/>
       <path id="DejaVuSerif-Bold-63" d="M 3609 1038 
Q 3491 469 3123 189 
Q 2756 -91 2125 -91 
Q 1238 -91 750 368 
Q 263 828 263 1663 
Q 263 2488 744 2950 
Q 1225 3413 2081 3413 
Q 2428 3413 2781 3347 
Q 3134 3281 3500 3150 
L 3500 2228 
L 3150 2228 
Q 3100 2650 2903 2854 
Q 2706 3059 2350 3059 
Q 1888 3059 1692 2746 
Q 1497 2434 1497 1663 
Q 1497 909 1687 586 
Q 1878 263 2309 263 
Q 2644 263 2845 463 
Q 3047 663 3091 1038 
L 3609 1038 
z
" transform="scale(0.015625)"/>
       <path id="DejaVuSerif-Bold-73" d="M 300 97 
L 300 1025 
L 653 1025 
Q 697 653 931 458 
Q 1166 263 1569 263 
Q 1906 263 2086 380 
Q 2266 497 2266 716 
Q 2266 916 2152 1025 
Q 2038 1134 1709 1216 
L 1253 1331 
Q 738 1459 506 1698 
Q 275 1938 275 2344 
Q 275 2884 650 3148 
Q 1025 3413 1806 3413 
Q 2100 3413 2433 3364 
Q 2766 3316 3169 3213 
L 3169 2375 
L 2816 2375 
Q 2788 2716 2573 2887 
Q 2359 3059 1959 3059 
Q 1622 3059 1448 2951 
Q 1275 2844 1275 2638 
Q 1275 2469 1375 2372 
Q 1475 2275 1734 2209 
L 2188 2094 
Q 2841 1928 3091 1684 
Q 3341 1441 3341 1006 
Q 3341 444 2939 176 
Q 2538 -91 1691 -91 
Q 1381 -91 1034 -44 
Q 688 3 300 97 
z
" transform="scale(0.015625)"/>
      </defs>
      <use xlink:href="#DejaVuSerif-Bold-50"/>
      <use xlink:href="#DejaVuSerif-Bold-72" x="75.195312"/>
      <use xlink:href="#DejaVuSerif-Bold-65" x="127.880859"/>
      <use xlink:href="#DejaVuSerif-Bold-70" x="191.503906"/>
      <use xlink:href="#DejaVuSerif-Bold-72" x="261.425781"/>
      <use xlink:href="#DejaVuSerif-Bold-6f" x="314.111328"/>
      <use xlink:href="#DejaVuSerif-Bold-63" x="380.810547"/>
      <use xlink:href="#DejaVuSerif-Bold-65" x="441.699219"/>
      <use xlink:href="#DejaVuSerif-Bold-73" x="505.322266"/>
      <use xlink:href="#DejaVuSerif-Bold-73" x="561.621094"/>
     </g>
    </g>
    <g id="patch_4">
     <path d="M 283.2 102.09456 
L 421.2 102.09456 
L 421.2 83.173259 
L 283.2 83.173259 
z
" style="fill: #dce6f5; stroke: #000000; stroke-linejoin: miter"/>
    </g>
    <g id="text_3">
     <!-- Inference -->
     <g transform="translate(325.217188 95.393285) scale(0.1 -0.1)">
      <defs>
       <path id="DejaVuSerif-Bold-49" d="M 300 0 
L 300 378 
L 897 378 
L 897 4288 
L 300 4288 
L 300 4666 
L 2700 4666 
L 2700 4288 
L 2100 4288 
L 2100 378 
L 2700 378 
L 2700 0 
L 300 0 
z
" transform="scale(0.015625)"/>
       <path id="DejaVuSerif-Bold-6e" d="M 219 0 
L 219 378 
L 691 378 
L 691 2944 
L 219 2944 
L 219 3322 
L 1797 3322 
L 1797 2853 
Q 1997 3150 2253 3281 
Q 2509 3413 2900 3413 
Q 3459 3413 3745 3083 
Q 4031 2753 4031 2113 
L 4031 378 
L 4506 378 
L 4506 0 
L 2522 0 
L 2522 378 
L 2925 378 
L 2925 2144 
Q 2925 2566 2817 2730 
Q 2709 2894 2444 2894 
Q 2109 2894 1953 2648 
Q 1797 2403 1797 1869 
L 1797 378 
L 2203 378 
L 2203 0 
L 219 0 
z
" transform="scale(0.015625)"/>
       <path id="DejaVuSerif-Bold-66" d="M 3097 4031 
L 2747 4031 
Q 2722 4275 2605 4394 
Q 2488 4513 2272 4513 
Q 2022 4513 1909 4333 
Q 1797 4153 1797 3750 
L 1797 3322 
L 2631 3322 
L 2631 2944 
L 1797 2944 
L 1797 378 
L 2438 378 
L 2438 0 
L 219 0 
L 219 378 
L 691 378 
L 691 2944 
L 197 2944 
L 197 3322 
L 691 3322 
L 691 3738 
Q 691 4291 1044 4577 
Q 1397 4863 2081 4863 
Q 2347 4863 2600 4833 
Q 2853 4803 3097 4744 
L 3097 4031 
z
" transform="scale(0.015625)"/>
      </defs>
      <use xlink:href="#DejaVuSerif-Bold-49"/>
      <use xlink:href="#DejaVuSerif-Bold-6e" x="46.777344"/>
      <use xlink:href="#DejaVuSerif-Bold-66" x="119.482422"/>
      <use xlink:href="#DejaVuSerif-Bold-65" x="162.5"/>
      <use xlink:href="#DejaVuSerif-Bold-72" x="226.123047"/>
      <use xlink:href="#DejaVuSerif-Bold-65" x="278.808594"/>
      <use xlink:href="#DejaVuSerif-Bold-6e" x="342.431641"/>
      <use xlink:href="#DejaVuSerif-Bold-63" x="415.136719"/>
      <use xlink:href="#DejaVuSerif-Bold-65" x="476.025391"/>
     </g>
    </g>
    <g id="patch_5">
     <path d="M 421.2 102.09456 
L 559.2 102.09456 
L 559.2 83.173259 
L 421.2 83.173259 
z
" style="fill: #dce6f5; stroke: #000000; stroke-linejoin: miter"/>
    </g>
    <g id="text_4">
     <!-- Postprocess -->
     <g transform="translate(456.790625 95.393285) scale(0.1 -0.1)">
      <defs>
       <path id="DejaVuSerif-Bold-74" d="M 634 2944 
L 153 2944 
L 153 3322 
L 634 3322 
L 634 4353 
L 1741 4353 
L 1741 3322 
L 2663 3322 
L 2663 2944 
L 1741 2944 
L 1741 909 
Q 1741 475 1809 369 
Q 1878 263 2059 263 
Q 2259 263 2356 397 
Q 2453 531 2459 813 
L 2925 813 
Q 2897 313 2651 111 
Q 2406 -91 1806 -91 
Q 1122 -91 878 123 
Q 634 338 634 909 
L 634 2944 
z
" transform="scale(0.015625)"/>
      </defs>
      <use xlink:href="#DejaVuSerif-Bold-50"/>
      <use xlink:href="#DejaVuSerif-Bold-6f" x="72.570312"/>
      <use xlink:href="#DejaVuSerif-Bold-73" x="139.269531"/>
      <use xlink:href="#DejaVuSerif-Bold-74" x="195.568359"/>
      <use xlink:href="#DejaVuSerif-Bold-70" x="241.759766"/>
      <use xlink:href="#DejaVuSerif-Bold-72" x="311.681641"/>
      <use xlink:href="#DejaVuSerif-Bold-6f" x="364.367188"/>
      <use xlink:href="#DejaVuSerif-Bold-63" x="431.066406"/>
      <use xlink:href="#DejaVuSerif-Bold-65" x="491.955078"/>
      <use xlink:href="#DejaVuSerif-Bold-73" x="555.578125"/>
      <use xlink:href="#DejaVuSerif-Bold-73" x="611.876953"/>
     </g>
    </g>
    <g id="patch_6">
     <path d="M 559.2 102.09456 
L 697.2 102.09456 
L 697.2 83.173259 
L 559.2 83.173259 
z
" style="fill: #dce6f5; stroke: #000000; stroke-linejoin: miter"/>
    </g>
    <g id="text_5">
     <!-- End-to-End -->
     <g transform="translate(596.521094 95.393285) scale(0.1 -0.1)">
      <defs>
       <path id="DejaVuSerif-Bold-45" d="M 300 0 
L 300 378 
L 897 378 
L 897 4288 
L 300 4288 
L 300 4666 
L 4494 4666 
L 4494 3566 
L 4063 3566 
L 4063 4238 
L 2100 4238 
L 2100 2741 
L 3322 2741 
L 3322 3334 
L 3750 3334 
L 3750 1722 
L 3322 1722 
L 3322 2316 
L 2100 2316 
L 2100 428 
L 4122 428 
L 4122 1100 
L 4550 1100 
L 4550 0 
L 300 0 
z
" transform="scale(0.015625)"/>
       <path id="DejaVuSerif-Bold-2d" d="M 347 2138 
L 2309 2138 
L 2309 1294 
L 347 1294 
L 347 2138 
z
" transform="scale(0.015625)"/>
      </defs>
      <use xlink:href="#DejaVuSerif-Bold-45"/>
      <use xlink:href="#DejaVuSerif-Bold-6e" x="76.220703"/>
      <use xlink:href="#DejaVuSerif-Bold-64" x="148.925781"/>
      <use xlink:href="#DejaVuSerif-Bold-2d" x="218.847656"/>
      <use xlink:href="#DejaVuSerif-Bold-74" x="260.351562"/>
      <use xlink:href="#DejaVuSerif-Bold-6f" x="306.542969"/>
      <use xlink:href="#DejaVuSerif-Bold-2d" x="373.242188"/>
      <use xlink:href="#DejaVuSerif-Bold-45" x="414.746094"/>
      <use xlink:href="#DejaVuSerif-Bold-6e" x="490.966797"/>
      <use xlink:href="#DejaVuSerif-Bold-64" x="563.671875"/>
     </g>
    </g>
    <g id="patch_7">
     <path d="M 697.2 102.09456 
L 835.2 102.09456 
L 835.2 83.173259 
L 697.2 83.173259 
z
" style="fill: #dce6f5; stroke: #000000; stroke-linejoin: miter"/>
    </g>
    <g id="text_6">
     <!-- FPS -->
     <g transform="translate(755.278906 95.393285) scale(0.1 -0.1)">
      <defs>
       <path id="DejaVuSerif-Bold-46" d="M 300 0 
L 300 378 
L 897 378 
L 897 4288 
L 300 4288 
L 300 4666 
L 4459 4666 
L 4459 3566 
L 4031 3566 
L 4031 4238 
L 2106 4238 
L 2106 2741 
L 3291 2741 
L 3291 3334 
L 3719 3334 
L 3719 1722 
L 3291 1722 
L 3291 2316 
L 2106 2316 
L 2106 378 
L 2841 378 
L 2841 0 
L 300 0 
z
" transform="scale(0.015625)"/>
       <path id="DejaVuSerif-Bold-53" d="M 494 225 
L 494 1331 
L 891 1331 
Q 981 806 1318 547 
Q 1656 288 2253 288 
Q 2738 288 2991 472 
Q 3244 656 3244 1013 
Q 3244 1294 3072 1450 
Q 2900 1606 2363 1741 
L 1663 1913 
Q 978 2088 700 2398 
Q 422 2709 422 3284 
Q 422 3978 883 4364 
Q 1344 4750 2175 4750 
Q 2584 4750 3026 4681 
Q 3469 4613 3944 4475 
L 3944 3444 
L 3547 3444 
Q 3456 3925 3150 4148 
Q 2844 4372 2278 4372 
Q 1816 4372 1580 4211 
Q 1344 4050 1344 3731 
Q 1344 3441 1506 3289 
Q 1669 3138 2303 2975 
L 3003 2803 
Q 3653 2641 3945 2297 
Q 4238 1953 4238 1350 
Q 4238 644 3750 276 
Q 3263 -91 2316 -91 
Q 1859 -91 1409 -12 
Q 959 66 494 225 
z
" transform="scale(0.015625)"/>
      </defs>
      <use xlink:href="#DejaVuSerif-Bold-46"/>
      <use xlink:href="#DejaVuSerif-Bold-50" x="70.996094"/>
      <use xlink:href="#DejaVuSerif-Bold-53" x="146.191406"/>
     </g>
    </g>
    <g id="patch_8">
     <path d="M 7.2 121.015861 
L 145.2 121.015861 
L 145.2 102.09456 
L 7.2 102.09456 
z
" style="fill: #ffffff; stroke: #000000; stroke-linejoin: miter"/>
    </g>
    <g id="text_7">
     <!-- +SADH -->
     <g style="fill: #262626" transform="translate(55.459375 114.314586) scale(0.1 -0.1)">
      <defs>
       <path id="DejaVuSerif-Bold-2b" d="M 3041 4013 
L 3041 2369 
L 4684 2369 
L 4684 1650 
L 3041 1650 
L 3041 6 
L 2322 6 
L 2322 1650 
L 678 1650 
L 678 2369 
L 2322 2369 
L 2322 4013 
L 3041 4013 
z
" transform="scale(0.015625)"/>
       <path id="DejaVuSerif-Bold-41" d="M -50 0 
L -50 378 
L 331 378 
L 2088 4666 
L 2834 4666 
L 4594 378 
L 5038 378 
L 5038 0 
L 2853 0 
L 2853 378 
L 3309 378 
L 2925 1331 
L 1172 1331 
L 781 378 
L 1338 378 
L 1338 0 
L -50 0 
z
M 1325 1709 
L 2772 1709 
L 2053 3494 
L 1325 1709 
z
" transform="scale(0.015625)"/>
       <path id="DejaVuSerif-Bold-44" d="M 2100 378 
L 2534 378 
Q 3266 378 3605 847 
Q 3944 1316 3944 2338 
Q 3944 3353 3606 3820 
Q 3269 4288 2534 4288 
L 2100 4288 
L 2100 378 
z
M 300 0 
L 300 378 
L 897 378 
L 897 4288 
L 300 4288 
L 300 4666 
L 2694 4666 
Q 3950 4666 4615 4066 
Q 5281 3466 5281 2338 
Q 5281 1203 4614 601 
Q 3947 0 2694 0 
L 300 0 
z
" transform="scale(0.015625)"/>
       <path id="DejaVuSerif-Bold-48" d="M 300 0 
L 300 378 
L 897 378 
L 897 4288 
L 300 4288 
L 300 4666 
L 2700 4666 
L 2700 4288 
L 2100 4288 
L 2100 2719 
L 3956 2719 
L 3956 4288 
L 3359 4288 
L 3359 4666 
L 5759 4666 
L 5759 4288 
L 5159 4288 
L 5159 378 
L 5759 378 
L 5759 0 
L 3359 0 
L 3359 378 
L 3956 378 
L 3956 2291 
L 2100 2291 
L 2100 378 
L 2700 378 
L 2700 0 
L 300 0 
z
" transform="scale(0.015625)"/>
      </defs>
      <use xlink:href="#DejaVuSerif-Bold-2b"/>
      <use xlink:href="#DejaVuSerif-Bold-53" x="83.789062"/>
      <use xlink:href="#DejaVuSerif-Bold-41" x="156.005859"/>
      <use xlink:href="#DejaVuSerif-Bold-44" x="233.59375"/>
      <use xlink:href="#DejaVuSerif-Bold-48" x="320.3125"/>
     </g>
    </g>
    <g id="patch_9">
     <path d="M 145.2 121.015861 
L 283.2 121.015861 
L 283.2 102.09456 
L 145.2 102.09456 
z
" style="fill: #ffffff; stroke: #000000; stroke-linejoin: miter"/>
    </g>
    <g id="text_8">
     <!-- 2.01 -->
     <g style="fill: #262626" transform="translate(203.067187 114.314586) scale(0.1 -0.1)">
      <defs>
       <path id="DejaVuSerif-32" d="M 819 3553 
L 469 3553 
L 469 4384 
Q 803 4563 1142 4656 
Q 1481 4750 1806 4750 
Q 2534 4750 2956 4397 
Q 3378 4044 3378 3438 
Q 3378 2753 2422 1800 
Q 2347 1728 2309 1691 
L 1131 513 
L 3078 513 
L 3078 1088 
L 3444 1088 
L 3444 0 
L 434 0 
L 434 341 
L 1850 1753 
Q 2319 2222 2519 2614 
Q 2719 3006 2719 3438 
Q 2719 3909 2473 4175 
Q 2228 4441 1797 4441 
Q 1350 4441 1106 4219 
Q 863 3997 819 3553 
z
" transform="scale(0.015625)"/>
       <path id="DejaVuSerif-2e" d="M 603 325 
Q 603 500 722 622 
Q 841 744 1019 744 
Q 1191 744 1312 622 
Q 1434 500 1434 325 
Q 1434 153 1312 31 
Q 1191 -91 1019 -91 
Q 841 -91 722 29 
Q 603 150 603 325 
z
" transform="scale(0.015625)"/>
       <path id="DejaVuSerif-30" d="M 2034 219 
Q 2513 219 2750 744 
Q 2988 1269 2988 2328 
Q 2988 3391 2750 3916 
Q 2513 4441 2034 4441 
Q 1556 4441 1318 3916 
Q 1081 3391 1081 2328 
Q 1081 1269 1318 744 
Q 1556 219 2034 219 
z
M 2034 -91 
Q 1275 -91 848 546 
Q 422 1184 422 2328 
Q 422 3475 848 4112 
Q 1275 4750 2034 4750 
Q 2797 4750 3222 4112 
Q 3647 3475 3647 2328 
Q 3647 1184 3222 546 
Q 2797 -91 2034 -91 
z
" transform="scale(0.015625)"/>
       <path id="DejaVuSerif-31" d="M 909 0 
L 909 331 
L 1722 331 
L 1722 4213 
L 781 3603 
L 781 4013 
L 1919 4750 
L 2350 4750 
L 2350 331 
L 3163 331 
L 3163 0 
L 909 0 
z
" transform="scale(0.015625)"/>
      </defs>
      <use xlink:href="#DejaVuSerif-32"/>
      <use xlink:href="#DejaVuSerif-2e" x="63.623047"/>
      <use xlink:href="#DejaVuSerif-30" x="95.410156"/>
      <use xlink:href="#DejaVuSerif-31" x="159.033203"/>
     </g>
    </g>
    <g id="patch_10">
     <path d="M 283.2 121.015861 
L 421.2 121.015861 
L 421.2 102.09456 
L 283.2 102.09456 
z
" style="fill: #ffffff; stroke: #000000; stroke-linejoin: miter"/>
    </g>
    <g id="text_9">
     <!-- 41.88 -->
     <g style="fill: #262626" transform="translate(337.885938 114.314586) scale(0.1 -0.1)">
      <defs>
       <path id="DejaVuSerif-34" d="M 2234 1581 
L 2234 4063 
L 641 1581 
L 2234 1581 
z
M 3609 0 
L 1484 0 
L 1484 331 
L 2234 331 
L 2234 1247 
L 197 1247 
L 197 1588 
L 2241 4750 
L 2859 4750 
L 2859 1581 
L 3750 1581 
L 3750 1247 
L 2859 1247 
L 2859 331 
L 3609 331 
L 3609 0 
z
" transform="scale(0.015625)"/>
       <path id="DejaVuSerif-38" d="M 2981 1275 
Q 2981 1775 2732 2051 
Q 2484 2328 2034 2328 
Q 1584 2328 1336 2051 
Q 1088 1775 1088 1275 
Q 1088 772 1336 495 
Q 1584 219 2034 219 
Q 2484 219 2732 495 
Q 2981 772 2981 1275 
z
M 2853 3541 
Q 2853 3966 2637 4203 
Q 2422 4441 2034 4441 
Q 1650 4441 1433 4203 
Q 1216 3966 1216 3541 
Q 1216 3113 1433 2875 
Q 1650 2638 2034 2638 
Q 2422 2638 2637 2875 
Q 2853 3113 2853 3541 
z
M 2516 2484 
Q 3047 2413 3344 2092 
Q 3641 1772 3641 1275 
Q 3641 619 3225 264 
Q 2809 -91 2034 -91 
Q 1263 -91 845 264 
Q 428 619 428 1275 
Q 428 1772 725 2092 
Q 1022 2413 1556 2484 
Q 1084 2569 832 2842 
Q 581 3116 581 3541 
Q 581 4103 968 4426 
Q 1356 4750 2034 4750 
Q 2713 4750 3100 4426 
Q 3488 4103 3488 3541 
Q 3488 3116 3236 2842 
Q 2984 2569 2516 2484 
z
" transform="scale(0.015625)"/>
      </defs>
      <use xlink:href="#DejaVuSerif-34"/>
      <use xlink:href="#DejaVuSerif-31" x="63.623047"/>
      <use xlink:href="#DejaVuSerif-2e" x="127.246094"/>
      <use xlink:href="#DejaVuSerif-38" x="159.033203"/>
      <use xlink:href="#DejaVuSerif-38" x="222.65625"/>
     </g>
    </g>
    <g id="patch_11">
     <path d="M 421.2 121.015861 
L 559.2 121.015861 
L 559.2 102.09456 
L 421.2 102.09456 
z
" style="fill: #ffffff; stroke: #000000; stroke-linejoin: miter"/>
    </g>
    <g id="text_10">
     <!-- 11.68 -->
     <g style="fill: #262626" transform="translate(475.885937 114.314586) scale(0.1 -0.1)">
      <defs>
       <path id="DejaVuSerif-36" d="M 2094 219 
Q 2534 219 2771 542 
Q 3009 866 3009 1472 
Q 3009 2078 2771 2401 
Q 2534 2725 2094 2725 
Q 1647 2725 1412 2412 
Q 1178 2100 1178 1509 
Q 1178 888 1415 553 
Q 1653 219 2094 219 
z
M 1075 2569 
Q 1288 2803 1556 2918 
Q 1825 3034 2163 3034 
Q 2859 3034 3264 2615 
Q 3669 2197 3669 1472 
Q 3669 763 3233 336 
Q 2797 -91 2069 -91 
Q 1278 -91 853 498 
Q 428 1088 428 2181 
Q 428 3406 931 4078 
Q 1434 4750 2350 4750 
Q 2597 4750 2869 4703 
Q 3141 4656 3425 4563 
L 3425 3794 
L 3072 3794 
Q 3034 4109 2831 4275 
Q 2628 4441 2284 4441 
Q 1678 4441 1381 3981 
Q 1084 3522 1075 2569 
z
" transform="scale(0.015625)"/>
      </defs>
      <use xlink:href="#DejaVuSerif-31"/>
      <use xlink:href="#DejaVuSerif-31" x="63.623047"/>
      <use xlink:href="#DejaVuSerif-2e" x="127.246094"/>
      <use xlink:href="#DejaVuSerif-36" x="159.033203"/>
      <use xlink:href="#DejaVuSerif-38" x="222.65625"/>
     </g>
    </g>
    <g id="patch_12">
     <path d="M 559.2 121.015861 
L 697.2 121.015861 
L 697.2 102.09456 
L 559.2 102.09456 
z
" style="fill: #ffffff; stroke: #000000; stroke-linejoin: miter"/>
    </g>
    <g id="text_11">
     <!-- 55.57 -->
     <g style="fill: #262626" transform="translate(613.885938 114.314586) scale(0.1 -0.1)">
      <defs>
       <path id="DejaVuSerif-35" d="M 3219 4666 
L 3219 4153 
L 1081 4153 
L 1081 2816 
Q 1244 2928 1461 2984 
Q 1678 3041 1947 3041 
Q 2703 3041 3140 2622 
Q 3578 2203 3578 1478 
Q 3578 738 3136 323 
Q 2694 -91 1894 -91 
Q 1572 -91 1234 -12 
Q 897 66 544 225 
L 544 1131 
L 897 1131 
Q 925 688 1179 453 
Q 1434 219 1894 219 
Q 2388 219 2653 544 
Q 2919 869 2919 1478 
Q 2919 2084 2655 2407 
Q 2391 2731 1894 2731 
Q 1613 2731 1398 2631 
Q 1184 2531 1019 2322 
L 750 2322 
L 750 4666 
L 3219 4666 
z
" transform="scale(0.015625)"/>
       <path id="DejaVuSerif-37" d="M 3609 4347 
L 1784 0 
L 1319 0 
L 3059 4153 
L 903 4153 
L 903 3578 
L 538 3578 
L 538 4666 
L 3609 4666 
L 3609 4347 
z
" transform="scale(0.015625)"/>
      </defs>
      <use xlink:href="#DejaVuSerif-35"/>
      <use xlink:href="#DejaVuSerif-35" x="63.623047"/>
      <use xlink:href="#DejaVuSerif-2e" x="127.246094"/>
      <use xlink:href="#DejaVuSerif-35" x="159.033203"/>
      <use xlink:href="#DejaVuSerif-37" x="222.65625"/>
     </g>
    </g>
    <g id="patch_13">
     <path d="M 697.2 121.015861 
L 835.2 121.015861 
L 835.2 102.09456 
L 697.2 102.09456 
z
" style="fill: #ffffff; stroke: #000000; stroke-linejoin: miter"/>
    </g>
    <g id="text_12">
     <!-- 18.00 -->
     <g style="fill: #262626" transform="translate(751.885937 114.314586) scale(0.1 -0.1)">
      <use xlink:href="#DejaVuSerif-31"/>
      <use xlink:href="#DejaVuSerif-38" x="63.623047"/>
      <use xlink:href="#DejaVuSerif-2e" x="127.246094"/>
      <use xlink:href="#DejaVuSerif-30" x="159.033203"/>
      <use xlink:href="#DejaVuSerif-30" x="222.65625"/>
     </g>
    </g>
    <g id="patch_14">
     <path d="M 7.2 139.937162 
L 145.2 139.937162 
L 145.2 121.015861 
L 7.2 121.015861 
z
" style="fill: #f9fbfd; stroke: #000000; stroke-linejoin: miter"/>
    </g>
    <g id="text_13">
     <!-- HARP-Net(ours) -->
     <g style="fill: #262626" transform="translate(30.66875 133.235887) scale(0.1 -0.1)">
      <defs>
       <path id="DejaVuSerif-Bold-52" d="M 3397 2278 
Q 3675 2238 3865 2094 
Q 4056 1950 4197 1678 
L 4878 378 
L 5356 378 
L 5356 0 
L 3822 0 
L 3078 1409 
Q 2863 1847 2711 1967 
Q 2559 2088 2291 2088 
L 2100 2088 
L 2100 378 
L 2700 378 
L 2700 0 
L 300 0 
L 300 378 
L 897 378 
L 897 4288 
L 300 4288 
L 300 4666 
L 2963 4666 
Q 3775 4666 4217 4339 
Q 4659 4013 4659 3413 
Q 4659 2925 4345 2642 
Q 4031 2359 3397 2278 
z
M 2100 2463 
L 2509 2463 
Q 2947 2463 3183 2700 
Q 3419 2938 3419 3378 
Q 3419 3819 3183 4053 
Q 2947 4288 2509 4288 
L 2100 4288 
L 2100 2463 
z
" transform="scale(0.015625)"/>
       <path id="DejaVuSerif-Bold-4e" d="M 281 0 
L 281 378 
L 878 378 
L 878 4288 
L 281 4288 
L 281 4666 
L 1741 4666 
L 4556 1363 
L 4556 4288 
L 3963 4288 
L 3963 4666 
L 5594 4666 
L 5594 4288 
L 4997 4288 
L 4997 0 
L 4178 0 
L 1319 3372 
L 1319 378 
L 1913 378 
L 1913 0 
L 281 0 
z
" transform="scale(0.015625)"/>
       <path id="DejaVuSerif-Bold-28" d="M 2694 -997 
Q 1641 -606 1122 122 
Q 603 850 603 1931 
Q 603 3013 1115 3731 
Q 1628 4450 2694 4863 
L 2694 4488 
Q 2200 4188 1983 3598 
Q 1766 3009 1766 1931 
Q 1766 856 1983 267 
Q 2200 -322 2694 -622 
L 2694 -997 
z
" transform="scale(0.015625)"/>
       <path id="DejaVuSerif-Bold-75" d="M 3963 3322 
L 3963 378 
L 4434 378 
L 4434 0 
L 2853 0 
L 2853 469 
Q 2656 172 2400 40 
Q 2144 -91 1753 -91 
Q 1194 -91 908 239 
Q 622 569 622 1209 
L 622 2944 
L 147 2944 
L 147 3322 
L 1728 3322 
L 1728 1381 
Q 1728 763 1831 595 
Q 1934 428 2209 428 
Q 2544 428 2698 675 
Q 2853 922 2853 1459 
L 2853 2944 
L 2450 2944 
L 2450 3322 
L 3963 3322 
z
" transform="scale(0.015625)"/>
       <path id="DejaVuSerif-Bold-29" d="M 325 -997 
L 325 -622 
Q 819 -322 1036 267 
Q 1253 856 1253 1931 
Q 1253 3009 1036 3598 
Q 819 4188 325 4488 
L 325 4863 
Q 1391 4450 1905 3731 
Q 2419 3013 2419 1931 
Q 2419 850 1898 122 
Q 1378 -606 325 -997 
z
" transform="scale(0.015625)"/>
      </defs>
      <use xlink:href="#DejaVuSerif-Bold-48"/>
      <use xlink:href="#DejaVuSerif-Bold-41" x="94.482422"/>
      <use xlink:href="#DejaVuSerif-Bold-52" x="172.070312"/>
      <use xlink:href="#DejaVuSerif-Bold-50" x="255.175781"/>
      <use xlink:href="#DejaVuSerif-Bold-2d" x="324.871094"/>
      <use xlink:href="#DejaVuSerif-Bold-4e" x="366.375"/>
      <use xlink:href="#DejaVuSerif-Bold-65" x="457.78125"/>
      <use xlink:href="#DejaVuSerif-Bold-74" x="521.404297"/>
      <use xlink:href="#DejaVuSerif-Bold-28" x="567.595703"/>
      <use xlink:href="#DejaVuSerif-Bold-6f" x="614.910156"/>
      <use xlink:href="#DejaVuSerif-Bold-75" x="681.609375"/>
      <use xlink:href="#DejaVuSerif-Bold-72" x="754.314453"/>
      <use xlink:href="#DejaVuSerif-Bold-73" x="807"/>
      <use xlink:href="#DejaVuSerif-Bold-29" x="863.298828"/>
     </g>
    </g>
    <g id="patch_15">
     <path d="M 145.2 139.937162 
L 283.2 139.937162 
L 283.2 121.015861 
L 145.2 121.015861 
z
" style="fill: #f9fbfd; stroke: #000000; stroke-linejoin: miter"/>
    </g>
    <g id="text_14">
     <!-- 1.92 -->
     <g style="fill: #262626" transform="translate(203.067187 133.235887) scale(0.1 -0.1)">
      <defs>
       <path id="DejaVuSerif-39" d="M 2994 2091 
Q 2784 1856 2512 1740 
Q 2241 1625 1900 1625 
Q 1206 1625 804 2044 
Q 403 2463 403 3188 
Q 403 3897 839 4323 
Q 1275 4750 2003 4750 
Q 2794 4750 3217 4161 
Q 3641 3572 3641 2478 
Q 3641 1253 3137 581 
Q 2634 -91 1722 -91 
Q 1475 -91 1203 -44 
Q 931 3 647 97 
L 647 872 
L 997 872 
Q 1038 556 1241 387 
Q 1444 219 1784 219 
Q 2391 219 2687 676 
Q 2984 1134 2994 2091 
z
M 1978 4441 
Q 1534 4441 1298 4117 
Q 1063 3794 1063 3188 
Q 1063 2581 1298 2256 
Q 1534 1931 1978 1931 
Q 2422 1931 2658 2245 
Q 2894 2559 2894 3150 
Q 2894 3772 2656 4106 
Q 2419 4441 1978 4441 
z
" transform="scale(0.015625)"/>
      </defs>
      <use xlink:href="#DejaVuSerif-31"/>
      <use xlink:href="#DejaVuSerif-2e" x="63.623047"/>
      <use xlink:href="#DejaVuSerif-39" x="95.410156"/>
      <use xlink:href="#DejaVuSerif-32" x="159.033203"/>
     </g>
    </g>
    <g id="patch_16">
     <path d="M 283.2 139.937162 
L 421.2 139.937162 
L 421.2 121.015861 
L 283.2 121.015861 
z
" style="fill: #f9fbfd; stroke: #000000; stroke-linejoin: miter"/>
    </g>
    <g id="text_15">
     <!-- 44.30 -->
     <g style="fill: #262626" transform="translate(337.885938 133.235887) scale(0.1 -0.1)">
      <defs>
       <path id="DejaVuSerif-33" d="M 622 4469 
Q 988 4606 1323 4678 
Q 1659 4750 1953 4750 
Q 2638 4750 3022 4454 
Q 3406 4159 3406 3634 
Q 3406 3213 3140 2930 
Q 2875 2647 2388 2547 
Q 2963 2466 3280 2130 
Q 3597 1794 3597 1259 
Q 3597 606 3158 257 
Q 2719 -91 1894 -91 
Q 1528 -91 1179 -12 
Q 831 66 488 225 
L 488 1131 
L 838 1131 
Q 869 681 1141 450 
Q 1413 219 1906 219 
Q 2384 219 2661 495 
Q 2938 772 2938 1253 
Q 2938 1803 2653 2086 
Q 2369 2369 1819 2369 
L 1522 2369 
L 1522 2688 
L 1678 2688 
Q 2225 2688 2498 2914 
Q 2772 3141 2772 3597 
Q 2772 4006 2547 4223 
Q 2322 4441 1900 4441 
Q 1478 4441 1245 4241 
Q 1013 4041 972 3647 
L 622 3647 
L 622 4469 
z
" transform="scale(0.015625)"/>
      </defs>
      <use xlink:href="#DejaVuSerif-34"/>
      <use xlink:href="#DejaVuSerif-34" x="63.623047"/>
      <use xlink:href="#DejaVuSerif-2e" x="127.246094"/>
      <use xlink:href="#DejaVuSerif-33" x="159.033203"/>
      <use xlink:href="#DejaVuSerif-30" x="222.65625"/>
     </g>
    </g>
    <g id="patch_17">
     <path d="M 421.2 139.937162 
L 559.2 139.937162 
L 559.2 121.015861 
L 421.2 121.015861 
z
" style="fill: #f9fbfd; stroke: #000000; stroke-linejoin: miter"/>
    </g>
    <g id="text_16">
     <!-- 11.58 -->
     <g style="fill: #262626" transform="translate(475.885937 133.235887) scale(0.1 -0.1)">
      <use xlink:href="#DejaVuSerif-31"/>
      <use xlink:href="#DejaVuSerif-31" x="63.623047"/>
      <use xlink:href="#DejaVuSerif-2e" x="127.246094"/>
      <use xlink:href="#DejaVuSerif-35" x="159.033203"/>
      <use xlink:href="#DejaVuSerif-38" x="222.65625"/>
     </g>
    </g>
    <g id="patch_18">
     <path d="M 559.2 139.937162 
L 697.2 139.937162 
L 697.2 121.015861 
L 559.2 121.015861 
z
" style="fill: #f9fbfd; stroke: #000000; stroke-linejoin: miter"/>
    </g>
    <g id="text_17">
     <!-- 57.80 -->
     <g style="fill: #262626" transform="translate(613.885938 133.235887) scale(0.1 -0.1)">
      <use xlink:href="#DejaVuSerif-35"/>
      <use xlink:href="#DejaVuSerif-37" x="63.623047"/>
      <use xlink:href="#DejaVuSerif-2e" x="127.246094"/>
      <use xlink:href="#DejaVuSerif-38" x="159.033203"/>
      <use xlink:href="#DejaVuSerif-30" x="222.65625"/>
     </g>
    </g>
    <g id="patch_19">
     <path d="M 697.2 139.937162 
L 835.2 139.937162 
L 835.2 121.015861 
L 697.2 121.015861 
z
" style="fill: #f9fbfd; stroke: #000000; stroke-linejoin: miter"/>
    </g>
    <g id="text_18">
     <!-- 17.30 -->
     <g style="fill: #262626" transform="translate(751.885937 133.235887) scale(0.1 -0.1)">
      <use xlink:href="#DejaVuSerif-31"/>
      <use xlink:href="#DejaVuSerif-37" x="63.623047"/>
      <use xlink:href="#DejaVuSerif-2e" x="127.246094"/>
      <use xlink:href="#DejaVuSerif-33" x="159.033203"/>
      <use xlink:href="#DejaVuSerif-30" x="222.65625"/>
     </g>
    </g>
    <g id="patch_20">
     <path d="M 7.2 158.858463 
L 145.2 158.858463 
L 145.2 139.937162 
L 7.2 139.937162 
z
" style="fill: #ffffff; stroke: #000000; stroke-linejoin: miter"/>
    </g>
    <g id="text_19">
     <!-- +A-GFPN -->
     <g style="fill: #262626" transform="translate(49.904688 152.157188) scale(0.1 -0.1)">
      <defs>
       <path id="DejaVuSerif-Bold-47" d="M 4403 3200 
Q 4263 3819 3934 4095 
Q 3606 4372 3009 4372 
Q 2284 4372 1945 3880 
Q 1606 3388 1606 2328 
Q 1606 1278 1931 783 
Q 2256 288 2944 288 
Q 3206 288 3431 347 
Q 3656 406 3841 525 
L 3841 1806 
L 3278 1806 
L 3278 2181 
L 4959 2181 
L 4959 391 
Q 4434 147 3911 28 
Q 3388 -91 2841 -91 
Q 1641 -91 955 556 
Q 269 1203 269 2328 
Q 269 3456 955 4103 
Q 1641 4750 2841 4750 
Q 3341 4750 3825 4650 
Q 4309 4550 4800 4347 
L 4800 3200 
L 4403 3200 
z
" transform="scale(0.015625)"/>
      </defs>
      <use xlink:href="#DejaVuSerif-Bold-2b"/>
      <use xlink:href="#DejaVuSerif-Bold-41" x="83.789062"/>
      <use xlink:href="#DejaVuSerif-Bold-2d" x="161.376953"/>
      <use xlink:href="#DejaVuSerif-Bold-47" x="202.880859"/>
      <use xlink:href="#DejaVuSerif-Bold-46" x="288.28125"/>
      <use xlink:href="#DejaVuSerif-Bold-50" x="359.277344"/>
      <use xlink:href="#DejaVuSerif-Bold-4e" x="434.472656"/>
     </g>
    </g>
    <g id="patch_21">
     <path d="M 145.2 158.858463 
L 283.2 158.858463 
L 283.2 139.937162 
L 145.2 139.937162 
z
" style="fill: #ffffff; stroke: #000000; stroke-linejoin: miter"/>
    </g>
    <g id="text_20">
     <!-- 2.00 -->
     <g style="fill: #262626" transform="translate(203.067187 152.157188) scale(0.1 -0.1)">
      <use xlink:href="#DejaVuSerif-32"/>
      <use xlink:href="#DejaVuSerif-2e" x="63.623047"/>
      <use xlink:href="#DejaVuSerif-30" x="95.410156"/>
      <use xlink:href="#DejaVuSerif-30" x="159.033203"/>
     </g>
    </g>
    <g id="patch_22">
     <path d="M 283.2 158.858463 
L 421.2 158.858463 
L 421.2 139.937162 
L 283.2 139.937162 
z
" style="fill: #ffffff; stroke: #000000; stroke-linejoin: miter"/>
    </g>
    <g id="text_21">
     <!-- 44.63 -->
     <g style="fill: #262626" transform="translate(337.885938 152.157188) scale(0.1 -0.1)">
      <use xlink:href="#DejaVuSerif-34"/>
      <use xlink:href="#DejaVuSerif-34" x="63.623047"/>
      <use xlink:href="#DejaVuSerif-2e" x="127.246094"/>
      <use xlink:href="#DejaVuSerif-36" x="159.033203"/>
      <use xlink:href="#DejaVuSerif-33" x="222.65625"/>
     </g>
    </g>
    <g id="patch_23">
     <path d="M 421.2 158.858463 
L 559.2 158.858463 
L 559.2 139.937162 
L 421.2 139.937162 
z
" style="fill: #ffffff; stroke: #000000; stroke-linejoin: miter"/>
    </g>
    <g id="text_22">
     <!-- 11.58 -->
     <g style="fill: #262626" transform="translate(475.885937 152.157188) scale(0.1 -0.1)">
      <use xlink:href="#DejaVuSerif-31"/>
      <use xlink:href="#DejaVuSerif-31" x="63.623047"/>
      <use xlink:href="#DejaVuSerif-2e" x="127.246094"/>
      <use xlink:href="#DejaVuSerif-35" x="159.033203"/>
      <use xlink:href="#DejaVuSerif-38" x="222.65625"/>
     </g>
    </g>
    <g id="patch_24">
     <path d="M 559.2 158.858463 
L 697.2 158.858463 
L 697.2 139.937162 
L 559.2 139.937162 
z
" style="fill: #ffffff; stroke: #000000; stroke-linejoin: miter"/>
    </g>
    <g id="text_23">
     <!-- 58.21 -->
     <g style="fill: #262626" transform="translate(613.885938 152.157188) scale(0.1 -0.1)">
      <use xlink:href="#DejaVuSerif-35"/>
      <use xlink:href="#DejaVuSerif-38" x="63.623047"/>
      <use xlink:href="#DejaVuSerif-2e" x="127.246094"/>
      <use xlink:href="#DejaVuSerif-32" x="159.033203"/>
      <use xlink:href="#DejaVuSerif-31" x="222.65625"/>
     </g>
    </g>
    <g id="patch_25">
     <path d="M 697.2 158.858463 
L 835.2 158.858463 
L 835.2 139.937162 
L 697.2 139.937162 
z
" style="fill: #ffffff; stroke: #000000; stroke-linejoin: miter"/>
    </g>
    <g id="text_24">
     <!-- 17.18 -->
     <g style="fill: #262626" transform="translate(751.885937 152.157188) scale(0.1 -0.1)">
      <use xlink:href="#DejaVuSerif-31"/>
      <use xlink:href="#DejaVuSerif-37" x="63.623047"/>
      <use xlink:href="#DejaVuSerif-2e" x="127.246094"/>
      <use xlink:href="#DejaVuSerif-31" x="159.033203"/>
      <use xlink:href="#DejaVuSerif-38" x="222.65625"/>
     </g>
    </g>
    <g id="patch_26">
     <path d="M 7.2 177.779764 
L 145.2 177.779764 
L 145.2 158.858463 
L 7.2 158.858463 
z
" style="fill: #f9fbfd; stroke: #000000; stroke-linejoin: miter"/>
    </g>
    <g id="text_25">
     <!-- +A-GFPN&amp;RepHFE -->
     <g style="fill: #262626" transform="translate(22.472656 171.078488) scale(0.1 -0.1)">
      <defs>
       <path id="DejaVuSerif-Bold-26" d="M 5663 0 
L 4166 0 
L 3769 409 
Q 3456 159 3078 34 
Q 2700 -91 2253 -91 
Q 1316 -91 786 309 
Q 256 709 256 1409 
Q 256 1919 526 2280 
Q 797 2641 1375 2900 
Q 1216 3109 1136 3300 
Q 1056 3491 1056 3669 
Q 1056 4181 1486 4465 
Q 1916 4750 2694 4750 
Q 2925 4750 3233 4712 
Q 3541 4675 3928 4603 
L 3928 3628 
L 3525 3628 
Q 3469 4016 3287 4194 
Q 3106 4372 2772 4372 
Q 2456 4372 2275 4222 
Q 2094 4072 2094 3816 
Q 2094 3528 2653 2959 
Q 2716 2897 2747 2869 
L 4184 1363 
Q 4372 1575 4478 1853 
Q 4584 2131 4613 2484 
L 4044 2484 
L 4044 2859 
L 5606 2859 
L 5606 2484 
L 5056 2484 
Q 5003 2028 4861 1675 
Q 4719 1322 4488 1050 
L 5131 378 
L 5663 378 
L 5663 0 
z
M 3475 716 
L 1709 2553 
Q 1538 2344 1450 2108 
Q 1363 1872 1363 1613 
Q 1363 1084 1695 743 
Q 2028 403 2541 403 
Q 2784 403 3014 479 
Q 3244 556 3475 716 
z
" transform="scale(0.015625)"/>
      </defs>
      <use xlink:href="#DejaVuSerif-Bold-2b"/>
      <use xlink:href="#DejaVuSerif-Bold-41" x="83.789062"/>
      <use xlink:href="#DejaVuSerif-Bold-2d" x="161.376953"/>
      <use xlink:href="#DejaVuSerif-Bold-47" x="202.880859"/>
      <use xlink:href="#DejaVuSerif-Bold-46" x="288.28125"/>
      <use xlink:href="#DejaVuSerif-Bold-50" x="359.277344"/>
      <use xlink:href="#DejaVuSerif-Bold-4e" x="434.472656"/>
      <use xlink:href="#DejaVuSerif-Bold-26" x="525.878906"/>
      <use xlink:href="#DejaVuSerif-Bold-52" x="616.162109"/>
      <use xlink:href="#DejaVuSerif-Bold-65" x="699.267578"/>
      <use xlink:href="#DejaVuSerif-Bold-70" x="762.890625"/>
      <use xlink:href="#DejaVuSerif-Bold-48" x="832.8125"/>
      <use xlink:href="#DejaVuSerif-Bold-46" x="927.294922"/>
      <use xlink:href="#DejaVuSerif-Bold-45" x="998.291016"/>
     </g>
    </g>
    <g id="patch_27">
     <path d="M 145.2 177.779764 
L 283.2 177.779764 
L 283.2 158.858463 
L 145.2 158.858463 
z
" style="fill: #f9fbfd; stroke: #000000; stroke-linejoin: miter"/>
    </g>
    <g id="text_26">
     <!-- 2.01 -->
     <g style="fill: #262626" transform="translate(203.067187 171.078488) scale(0.1 -0.1)">
      <use xlink:href="#DejaVuSerif-32"/>
      <use xlink:href="#DejaVuSerif-2e" x="63.623047"/>
      <use xlink:href="#DejaVuSerif-30" x="95.410156"/>
      <use xlink:href="#DejaVuSerif-31" x="159.033203"/>
     </g>
    </g>
    <g id="patch_28">
     <path d="M 283.2 177.779764 
L 421.2 177.779764 
L 421.2 158.858463 
L 283.2 158.858463 
z
" style="fill: #f9fbfd; stroke: #000000; stroke-linejoin: miter"/>
    </g>
    <g id="text_27">
     <!-- 44.96 -->
     <g style="fill: #262626" transform="translate(337.885938 171.078488) scale(0.1 -0.1)">
      <use xlink:href="#DejaVuSerif-34"/>
      <use xlink:href="#DejaVuSerif-34" x="63.623047"/>
      <use xlink:href="#DejaVuSerif-2e" x="127.246094"/>
      <use xlink:href="#DejaVuSerif-39" x="159.033203"/>
      <use xlink:href="#DejaVuSerif-36" x="222.65625"/>
     </g>
    </g>
    <g id="patch_29">
     <path d="M 421.2 177.779764 
L 559.2 177.779764 
L 559.2 158.858463 
L 421.2 158.858463 
z
" style="fill: #f9fbfd; stroke: #000000; stroke-linejoin: miter"/>
    </g>
    <g id="text_28">
     <!-- 11.79 -->
     <g style="fill: #262626" transform="translate(475.885937 171.078488) scale(0.1 -0.1)">
      <use xlink:href="#DejaVuSerif-31"/>
      <use xlink:href="#DejaVuSerif-31" x="63.623047"/>
      <use xlink:href="#DejaVuSerif-2e" x="127.246094"/>
      <use xlink:href="#DejaVuSerif-37" x="159.033203"/>
      <use xlink:href="#DejaVuSerif-39" x="222.65625"/>
     </g>
    </g>
    <g id="patch_30">
     <path d="M 559.2 177.779764 
L 697.2 177.779764 
L 697.2 158.858463 
L 559.2 158.858463 
z
" style="fill: #f9fbfd; stroke: #000000; stroke-linejoin: miter"/>
    </g>
    <g id="text_29">
     <!-- 58.76 -->
     <g style="fill: #262626" transform="translate(613.885938 171.078488) scale(0.1 -0.1)">
      <use xlink:href="#DejaVuSerif-35"/>
      <use xlink:href="#DejaVuSerif-38" x="63.623047"/>
      <use xlink:href="#DejaVuSerif-2e" x="127.246094"/>
      <use xlink:href="#DejaVuSerif-37" x="159.033203"/>
      <use xlink:href="#DejaVuSerif-36" x="222.65625"/>
     </g>
    </g>
    <g id="patch_31">
     <path d="M 697.2 177.779764 
L 835.2 177.779764 
L 835.2 158.858463 
L 697.2 158.858463 
z
" style="fill: #f9fbfd; stroke: #000000; stroke-linejoin: miter"/>
    </g>
    <g id="text_30">
     <!-- 17.02 -->
     <g style="fill: #262626" transform="translate(751.885937 171.078488) scale(0.1 -0.1)">
      <use xlink:href="#DejaVuSerif-31"/>
      <use xlink:href="#DejaVuSerif-37" x="63.623047"/>
      <use xlink:href="#DejaVuSerif-2e" x="127.246094"/>
      <use xlink:href="#DejaVuSerif-30" x="159.033203"/>
      <use xlink:href="#DejaVuSerif-32" x="222.65625"/>
     </g>
    </g>
    <g id="patch_32">
     <path d="M 7.2 196.701065 
L 145.2 196.701065 
L 145.2 177.779764 
L 7.2 177.779764 
z
" style="fill: #ffffff; stroke: #000000; stroke-linejoin: miter"/>
    </g>
    <g id="text_31">
     <!-- +RepHFE -->
     <g style="fill: #262626" transform="translate(49.092188 189.999789) scale(0.1 -0.1)">
      <use xlink:href="#DejaVuSerif-Bold-2b"/>
      <use xlink:href="#DejaVuSerif-Bold-52" x="83.789062"/>
      <use xlink:href="#DejaVuSerif-Bold-65" x="166.894531"/>
      <use xlink:href="#DejaVuSerif-Bold-70" x="230.517578"/>
      <use xlink:href="#DejaVuSerif-Bold-48" x="300.439453"/>
      <use xlink:href="#DejaVuSerif-Bold-46" x="394.921875"/>
      <use xlink:href="#DejaVuSerif-Bold-45" x="465.917969"/>
     </g>
    </g>
    <g id="patch_33">
     <path d="M 145.2 196.701065 
L 283.2 196.701065 
L 283.2 177.779764 
L 145.2 177.779764 
z
" style="fill: #ffffff; stroke: #000000; stroke-linejoin: miter"/>
    </g>
    <g id="text_32">
     <!-- 2.00 -->
     <g style="fill: #262626" transform="translate(203.067187 189.999789) scale(0.1 -0.1)">
      <use xlink:href="#DejaVuSerif-32"/>
      <use xlink:href="#DejaVuSerif-2e" x="63.623047"/>
      <use xlink:href="#DejaVuSerif-30" x="95.410156"/>
      <use xlink:href="#DejaVuSerif-30" x="159.033203"/>
     </g>
    </g>
    <g id="patch_34">
     <path d="M 283.2 196.701065 
L 421.2 196.701065 
L 421.2 177.779764 
L 283.2 177.779764 
z
" style="fill: #ffffff; stroke: #000000; stroke-linejoin: miter"/>
    </g>
    <g id="text_33">
     <!-- 45.45 -->
     <g style="fill: #262626" transform="translate(337.885938 189.999789) scale(0.1 -0.1)">
      <use xlink:href="#DejaVuSerif-34"/>
      <use xlink:href="#DejaVuSerif-35" x="63.623047"/>
      <use xlink:href="#DejaVuSerif-2e" x="127.246094"/>
      <use xlink:href="#DejaVuSerif-34" x="159.033203"/>
      <use xlink:href="#DejaVuSerif-35" x="222.65625"/>
     </g>
    </g>
    <g id="patch_35">
     <path d="M 421.2 196.701065 
L 559.2 196.701065 
L 559.2 177.779764 
L 421.2 177.779764 
z
" style="fill: #ffffff; stroke: #000000; stroke-linejoin: miter"/>
    </g>
    <g id="text_34">
     <!-- 11.44 -->
     <g style="fill: #262626" transform="translate(475.885937 189.999789) scale(0.1 -0.1)">
      <use xlink:href="#DejaVuSerif-31"/>
      <use xlink:href="#DejaVuSerif-31" x="63.623047"/>
      <use xlink:href="#DejaVuSerif-2e" x="127.246094"/>
      <use xlink:href="#DejaVuSerif-34" x="159.033203"/>
      <use xlink:href="#DejaVuSerif-34" x="222.65625"/>
     </g>
    </g>
    <g id="patch_36">
     <path d="M 559.2 196.701065 
L 697.2 196.701065 
L 697.2 177.779764 
L 559.2 177.779764 
z
" style="fill: #ffffff; stroke: #000000; stroke-linejoin: miter"/>
    </g>
    <g id="text_35">
     <!-- 58.88 -->
     <g style="fill: #262626" transform="translate(613.885938 189.999789) scale(0.1 -0.1)">
      <use xlink:href="#DejaVuSerif-35"/>
      <use xlink:href="#DejaVuSerif-38" x="63.623047"/>
      <use xlink:href="#DejaVuSerif-2e" x="127.246094"/>
      <use xlink:href="#DejaVuSerif-38" x="159.033203"/>
      <use xlink:href="#DejaVuSerif-38" x="222.65625"/>
     </g>
    </g>
    <g id="patch_37">
     <path d="M 697.2 196.701065 
L 835.2 196.701065 
L 835.2 177.779764 
L 697.2 177.779764 
z
" style="fill: #ffffff; stroke: #000000; stroke-linejoin: miter"/>
    </g>
    <g id="text_36">
     <!-- 16.98 -->
     <g style="fill: #262626" transform="translate(751.885937 189.999789) scale(0.1 -0.1)">
      <use xlink:href="#DejaVuSerif-31"/>
      <use xlink:href="#DejaVuSerif-36" x="63.623047"/>
      <use xlink:href="#DejaVuSerif-2e" x="127.246094"/>
      <use xlink:href="#DejaVuSerif-39" x="159.033203"/>
      <use xlink:href="#DejaVuSerif-38" x="222.65625"/>
     </g>
    </g>
    <g id="patch_38">
     <path d="M 7.2 215.622366 
L 145.2 215.622366 
L 145.2 196.701065 
L 7.2 196.701065 
z
" style="fill: #f9fbfd; stroke: #000000; stroke-linejoin: miter"/>
    </g>
    <g id="text_37">
     <!-- YOLOv8n -->
     <g style="fill: #262626" transform="translate(50.384375 208.92109) scale(0.1 -0.1)">
      <defs>
       <path id="DejaVuSerif-Bold-59" d="M 1100 0 
L 1100 378 
L 1728 378 
L 1728 1931 
L 341 4288 
L -56 4288 
L -56 4666 
L 2181 4666 
L 2181 4288 
L 1663 4288 
L 2713 2509 
L 3756 4288 
L 3291 4288 
L 3291 4666 
L 4628 4666 
L 4628 4288 
L 4231 4288 
L 2938 2094 
L 2938 378 
L 3566 378 
L 3566 0 
L 1100 0 
z
" transform="scale(0.015625)"/>
       <path id="DejaVuSerif-Bold-4f" d="M 2784 288 
Q 3381 288 3672 791 
Q 3963 1294 3963 2328 
Q 3963 3366 3672 3869 
Q 3381 4372 2784 4372 
Q 2191 4372 1898 3864 
Q 1606 3356 1606 2328 
Q 1606 1303 1898 795 
Q 2191 288 2784 288 
z
M 2784 -91 
Q 1606 -91 937 553 
Q 269 1197 269 2328 
Q 269 3459 939 4104 
Q 1609 4750 2784 4750 
Q 3963 4750 4631 4106 
Q 5300 3463 5300 2328 
Q 5300 1197 4629 553 
Q 3959 -91 2784 -91 
z
" transform="scale(0.015625)"/>
       <path id="DejaVuSerif-Bold-4c" d="M 300 0 
L 300 378 
L 897 378 
L 897 4288 
L 300 4288 
L 300 4666 
L 2700 4666 
L 2700 4288 
L 2100 4288 
L 2100 428 
L 3938 428 
L 3938 1166 
L 4359 1166 
L 4359 0 
L 300 0 
z
" transform="scale(0.015625)"/>
       <path id="DejaVuSerif-Bold-76" d="M 1428 0 
L 250 2944 
L -116 2944 
L -116 3322 
L 1791 3322 
L 1791 2944 
L 1388 2944 
L 2228 844 
L 3066 2944 
L 2631 2944 
L 2631 3322 
L 3878 3322 
L 3878 2944 
L 3494 2944 
L 2316 0 
L 1428 0 
z
" transform="scale(0.015625)"/>
       <path id="DejaVuSerif-Bold-38" d="M 2975 2484 
Q 3531 2394 3820 2075 
Q 4109 1756 4109 1241 
Q 4109 597 3623 253 
Q 3138 -91 2222 -91 
Q 1306 -91 818 253 
Q 331 597 331 1241 
Q 331 1756 622 2075 
Q 913 2394 1466 2484 
Q 975 2597 731 2861 
Q 488 3125 488 3531 
Q 488 4125 931 4437 
Q 1375 4750 2222 4750 
Q 3066 4750 3511 4437 
Q 3956 4125 3956 3531 
Q 3956 3125 3711 2861 
Q 3466 2597 2975 2484 
z
M 2747 3519 
Q 2747 4013 2628 4198 
Q 2509 4384 2222 4384 
Q 1931 4384 1814 4198 
Q 1697 4013 1697 3519 
Q 1697 3028 1814 2845 
Q 1931 2663 2222 2663 
Q 2513 2663 2630 2845 
Q 2747 3028 2747 3519 
z
M 2869 1294 
Q 2869 1866 2723 2081 
Q 2578 2297 2222 2297 
Q 1863 2297 1719 2081 
Q 1575 1866 1575 1294 
Q 1575 716 1720 495 
Q 1866 275 2222 275 
Q 2575 275 2722 495 
Q 2869 716 2869 1294 
z
" transform="scale(0.015625)"/>
      </defs>
      <use xlink:href="#DejaVuSerif-Bold-59"/>
      <use xlink:href="#DejaVuSerif-Bold-4f" x="71.386719"/>
      <use xlink:href="#DejaVuSerif-Bold-4c" x="158.496094"/>
      <use xlink:href="#DejaVuSerif-Bold-4f" x="228.808594"/>
      <use xlink:href="#DejaVuSerif-Bold-76" x="315.917969"/>
      <use xlink:href="#DejaVuSerif-Bold-38" x="374.023438"/>
      <use xlink:href="#DejaVuSerif-Bold-6e" x="443.603516"/>
     </g>
    </g>
    <g id="patch_39">
     <path d="M 145.2 215.622366 
L 283.2 215.622366 
L 283.2 196.701065 
L 145.2 196.701065 
z
" style="fill: #f9fbfd; stroke: #000000; stroke-linejoin: miter"/>
    </g>
    <g id="text_38">
     <!-- 2.14 -->
     <g style="fill: #262626" transform="translate(203.067187 208.92109) scale(0.1 -0.1)">
      <use xlink:href="#DejaVuSerif-32"/>
      <use xlink:href="#DejaVuSerif-2e" x="63.623047"/>
      <use xlink:href="#DejaVuSerif-31" x="95.410156"/>
      <use xlink:href="#DejaVuSerif-34" x="159.033203"/>
     </g>
    </g>
    <g id="patch_40">
     <path d="M 283.2 215.622366 
L 421.2 215.622366 
L 421.2 196.701065 
L 283.2 196.701065 
z
" style="fill: #f9fbfd; stroke: #000000; stroke-linejoin: miter"/>
    </g>
    <g id="text_39">
     <!-- 48.07 -->
     <g style="fill: #262626" transform="translate(337.885938 208.92109) scale(0.1 -0.1)">
      <use xlink:href="#DejaVuSerif-34"/>
      <use xlink:href="#DejaVuSerif-38" x="63.623047"/>
      <use xlink:href="#DejaVuSerif-2e" x="127.246094"/>
      <use xlink:href="#DejaVuSerif-30" x="159.033203"/>
      <use xlink:href="#DejaVuSerif-37" x="222.65625"/>
     </g>
    </g>
    <g id="patch_41">
     <path d="M 421.2 215.622366 
L 559.2 215.622366 
L 559.2 196.701065 
L 421.2 196.701065 
z
" style="fill: #f9fbfd; stroke: #000000; stroke-linejoin: miter"/>
    </g>
    <g id="text_40">
     <!-- 12.74 -->
     <g style="fill: #262626" transform="translate(475.885937 208.92109) scale(0.1 -0.1)">
      <use xlink:href="#DejaVuSerif-31"/>
      <use xlink:href="#DejaVuSerif-32" x="63.623047"/>
      <use xlink:href="#DejaVuSerif-2e" x="127.246094"/>
      <use xlink:href="#DejaVuSerif-37" x="159.033203"/>
      <use xlink:href="#DejaVuSerif-34" x="222.65625"/>
     </g>
    </g>
    <g id="patch_42">
     <path d="M 559.2 215.622366 
L 697.2 215.622366 
L 697.2 196.701065 
L 559.2 196.701065 
z
" style="fill: #f9fbfd; stroke: #000000; stroke-linejoin: miter"/>
    </g>
    <g id="text_41">
     <!-- 62.96 -->
     <g style="fill: #262626" transform="translate(613.885938 208.92109) scale(0.1 -0.1)">
      <use xlink:href="#DejaVuSerif-36"/>
      <use xlink:href="#DejaVuSerif-32" x="63.623047"/>
      <use xlink:href="#DejaVuSerif-2e" x="127.246094"/>
      <use xlink:href="#DejaVuSerif-39" x="159.033203"/>
      <use xlink:href="#DejaVuSerif-36" x="222.65625"/>
     </g>
    </g>
    <g id="patch_43">
     <path d="M 697.2 215.622366 
L 835.2 215.622366 
L 835.2 196.701065 
L 697.2 196.701065 
z
" style="fill: #f9fbfd; stroke: #000000; stroke-linejoin: miter"/>
    </g>
    <g id="text_42">
     <!-- 15.88 -->
     <g style="fill: #262626" transform="translate(751.885937 208.92109) scale(0.1 -0.1)">
      <use xlink:href="#DejaVuSerif-31"/>
      <use xlink:href="#DejaVuSerif-35" x="63.623047"/>
      <use xlink:href="#DejaVuSerif-2e" x="127.246094"/>
      <use xlink:href="#DejaVuSerif-38" x="159.033203"/>
      <use xlink:href="#DejaVuSerif-38" x="222.65625"/>
     </g>
    </g>
   </g>
   <g id="text_43">
    <!-- Latency Breakdown Table -->
    <g style="fill: #262626" transform="translate(329.181719 17.837812) scale(0.14 -0.14)">
     <defs>
      <path id="DejaVuSerif-4c" d="M 353 0 
L 353 331 
L 947 331 
L 947 4331 
L 353 4331 
L 353 4666 
L 2175 4666 
L 2175 4331 
L 1581 4331 
L 1581 384 
L 3713 384 
L 3713 1166 
L 4097 1166 
L 4097 0 
L 353 0 
z
" transform="scale(0.015625)"/>
      <path id="DejaVuSerif-61" d="M 2547 1044 
L 2547 1747 
L 1806 1747 
Q 1378 1747 1168 1562 
Q 959 1378 959 997 
Q 959 650 1171 447 
Q 1384 244 1747 244 
Q 2106 244 2326 466 
Q 2547 688 2547 1044 
z
M 3122 2075 
L 3122 331 
L 3634 331 
L 3634 0 
L 2547 0 
L 2547 359 
Q 2356 128 2106 18 
Q 1856 -91 1522 -91 
Q 969 -91 644 203 
Q 319 497 319 997 
Q 319 1513 691 1797 
Q 1063 2081 1741 2081 
L 2547 2081 
L 2547 2309 
Q 2547 2688 2317 2895 
Q 2088 3103 1672 3103 
Q 1328 3103 1125 2947 
Q 922 2791 872 2484 
L 575 2484 
L 575 3156 
Q 875 3284 1158 3348 
Q 1441 3413 1709 3413 
Q 2400 3413 2761 3070 
Q 3122 2728 3122 2075 
z
" transform="scale(0.015625)"/>
      <path id="DejaVuSerif-74" d="M 691 2988 
L 184 2988 
L 184 3322 
L 691 3322 
L 691 4353 
L 1269 4353 
L 1269 3322 
L 2350 3322 
L 2350 2988 
L 1269 2988 
L 1269 878 
Q 1269 456 1350 337 
Q 1431 219 1650 219 
Q 1875 219 1978 351 
Q 2081 484 2088 781 
L 2522 781 
Q 2497 328 2275 118 
Q 2053 -91 1600 -91 
Q 1103 -91 897 129 
Q 691 350 691 878 
L 691 2988 
z
" transform="scale(0.015625)"/>
      <path id="DejaVuSerif-65" d="M 3469 1600 
L 991 1600 
L 991 1575 
Q 991 903 1244 561 
Q 1497 219 1991 219 
Q 2369 219 2611 417 
Q 2853 616 2950 1006 
L 3413 1006 
Q 3275 459 2904 184 
Q 2534 -91 1931 -91 
Q 1203 -91 761 389 
Q 319 869 319 1663 
Q 319 2450 753 2931 
Q 1188 3413 1894 3413 
Q 2647 3413 3050 2948 
Q 3453 2484 3469 1600 
z
M 2791 1931 
Q 2772 2513 2545 2808 
Q 2319 3103 1894 3103 
Q 1497 3103 1269 2806 
Q 1041 2509 991 1931 
L 2791 1931 
z
" transform="scale(0.015625)"/>
      <path id="DejaVuSerif-6e" d="M 263 0 
L 263 331 
L 781 331 
L 781 2988 
L 231 2988 
L 231 3322 
L 1356 3322 
L 1356 2731 
Q 1516 3069 1770 3241 
Q 2025 3413 2363 3413 
Q 2913 3413 3172 3097 
Q 3431 2781 3431 2113 
L 3431 331 
L 3944 331 
L 3944 0 
L 2356 0 
L 2356 331 
L 2853 331 
L 2853 1931 
Q 2853 2541 2703 2767 
Q 2553 2994 2175 2994 
Q 1775 2994 1565 2701 
Q 1356 2409 1356 1850 
L 1356 331 
L 1856 331 
L 1856 0 
L 263 0 
z
" transform="scale(0.015625)"/>
      <path id="DejaVuSerif-63" d="M 3291 997 
Q 3169 466 2822 187 
Q 2475 -91 1925 -91 
Q 1200 -91 759 389 
Q 319 869 319 1663 
Q 319 2459 759 2936 
Q 1200 3413 1925 3413 
Q 2241 3413 2553 3339 
Q 2866 3266 3181 3116 
L 3181 2266 
L 2847 2266 
Q 2781 2703 2561 2903 
Q 2341 3103 1931 3103 
Q 1466 3103 1228 2742 
Q 991 2381 991 1663 
Q 991 944 1227 581 
Q 1463 219 1931 219 
Q 2303 219 2525 412 
Q 2747 606 2828 997 
L 3291 997 
z
" transform="scale(0.015625)"/>
      <path id="DejaVuSerif-79" d="M 1381 -609 
L 1600 -56 
L 359 2988 
L -19 2988 
L -19 3322 
L 1509 3322 
L 1509 2988 
L 978 2988 
L 1913 703 
L 2847 2988 
L 2350 2988 
L 2350 3322 
L 3597 3322 
L 3597 2988 
L 3225 2988 
L 1703 -750 
Q 1547 -1138 1356 -1280 
Q 1166 -1422 819 -1422 
Q 672 -1422 517 -1397 
Q 363 -1372 206 -1325 
L 206 -691 
L 500 -691 
Q 519 -903 608 -995 
Q 697 -1088 884 -1088 
Q 1056 -1088 1161 -992 
Q 1266 -897 1381 -609 
z
" transform="scale(0.015625)"/>
      <path id="DejaVuSerif-20" transform="scale(0.015625)"/>
      <path id="DejaVuSerif-42" d="M 1581 331 
L 2516 331 
Q 3078 331 3337 575 
Q 3597 819 3597 1350 
Q 3597 1878 3339 2120 
Q 3081 2363 2516 2363 
L 1581 2363 
L 1581 331 
z
M 1581 2694 
L 2375 2694 
Q 2888 2694 3123 2891 
Q 3359 3088 3359 3513 
Q 3359 3941 3123 4136 
Q 2888 4331 2375 4331 
L 1581 4331 
L 1581 2694 
z
M 353 0 
L 353 331 
L 947 331 
L 947 4331 
L 353 4331 
L 353 4666 
L 2656 4666 
Q 3363 4666 3720 4377 
Q 4078 4088 4078 3513 
Q 4078 3097 3829 2850 
Q 3581 2603 3103 2547 
Q 3697 2472 4005 2167 
Q 4313 1863 4313 1350 
Q 4313 656 3875 328 
Q 3438 0 2509 0 
L 353 0 
z
" transform="scale(0.015625)"/>
      <path id="DejaVuSerif-72" d="M 3059 3328 
L 3059 2497 
L 2728 2497 
Q 2713 2744 2591 2866 
Q 2469 2988 2234 2988 
Q 1809 2988 1582 2694 
Q 1356 2400 1356 1850 
L 1356 331 
L 2022 331 
L 2022 0 
L 263 0 
L 263 331 
L 781 331 
L 781 2994 
L 231 2994 
L 231 3322 
L 1356 3322 
L 1356 2731 
Q 1525 3078 1790 3245 
Q 2056 3413 2438 3413 
Q 2578 3413 2733 3391 
Q 2888 3369 3059 3328 
z
" transform="scale(0.015625)"/>
      <path id="DejaVuSerif-6b" d="M 1831 0 
L 219 0 
L 219 331 
L 738 331 
L 738 4531 
L 184 4531 
L 184 4863 
L 1313 4863 
L 1313 1697 
L 2713 2988 
L 2234 2988 
L 2234 3322 
L 3738 3322 
L 3738 2988 
L 3169 2988 
L 2181 2075 
L 3444 331 
L 3922 331 
L 3922 0 
L 2284 0 
L 2284 331 
L 2759 331 
L 1766 1697 
L 1313 1275 
L 1313 331 
L 1831 331 
L 1831 0 
z
" transform="scale(0.015625)"/>
      <path id="DejaVuSerif-64" d="M 3359 331 
L 3909 331 
L 3909 0 
L 2784 0 
L 2784 519 
Q 2616 206 2355 57 
Q 2094 -91 1709 -91 
Q 1097 -91 708 395 
Q 319 881 319 1663 
Q 319 2444 706 2928 
Q 1094 3413 1709 3413 
Q 2094 3413 2355 3264 
Q 2616 3116 2784 2803 
L 2784 4531 
L 2241 4531 
L 2241 4863 
L 3359 4863 
L 3359 331 
z
M 2784 1497 
L 2784 1825 
Q 2784 2422 2554 2737 
Q 2325 3053 1888 3053 
Q 1444 3053 1217 2703 
Q 991 2353 991 1663 
Q 991 975 1217 622 
Q 1444 269 1888 269 
Q 2325 269 2554 583 
Q 2784 897 2784 1497 
z
" transform="scale(0.015625)"/>
      <path id="DejaVuSerif-6f" d="M 1925 219 
Q 2388 219 2623 584 
Q 2859 950 2859 1663 
Q 2859 2375 2623 2739 
Q 2388 3103 1925 3103 
Q 1463 3103 1227 2739 
Q 991 2375 991 1663 
Q 991 950 1228 584 
Q 1466 219 1925 219 
z
M 1925 -91 
Q 1200 -91 759 389 
Q 319 869 319 1663 
Q 319 2456 758 2934 
Q 1197 3413 1925 3413 
Q 2653 3413 3092 2934 
Q 3531 2456 3531 1663 
Q 3531 869 3092 389 
Q 2653 -91 1925 -91 
z
" transform="scale(0.015625)"/>
      <path id="DejaVuSerif-77" d="M 3072 3322 
L 3922 728 
L 4672 2988 
L 4191 2988 
L 4191 3322 
L 5394 3322 
L 5394 2988 
L 5025 2988 
L 4038 0 
L 3559 0 
L 2741 2484 
L 1919 0 
L 1459 0 
L 475 2988 
L 103 2988 
L 103 3322 
L 1606 3322 
L 1606 2988 
L 1069 2988 
L 1813 728 
L 2669 3322 
L 3072 3322 
z
" transform="scale(0.015625)"/>
      <path id="DejaVuSerif-54" d="M 1222 0 
L 1222 331 
L 1819 331 
L 1819 4294 
L 447 4294 
L 447 3566 
L 63 3566 
L 63 4666 
L 4206 4666 
L 4206 3566 
L 3822 3566 
L 3822 4294 
L 2450 4294 
L 2450 331 
L 3047 331 
L 3047 0 
L 1222 0 
z
" transform="scale(0.015625)"/>
      <path id="DejaVuSerif-62" d="M 738 331 
L 738 4531 
L 184 4531 
L 184 4863 
L 1313 4863 
L 1313 2803 
Q 1481 3116 1742 3264 
Q 2003 3413 2388 3413 
Q 3000 3413 3387 2928 
Q 3775 2444 3775 1663 
Q 3775 881 3387 395 
Q 3000 -91 2388 -91 
Q 2003 -91 1742 57 
Q 1481 206 1313 519 
L 1313 0 
L 184 0 
L 184 331 
L 738 331 
z
M 1313 1497 
Q 1313 897 1542 583 
Q 1772 269 2209 269 
Q 2650 269 2876 622 
Q 3103 975 3103 1663 
Q 3103 2353 2876 2703 
Q 2650 3053 2209 3053 
Q 1772 3053 1542 2737 
Q 1313 2422 1313 1825 
L 1313 1497 
z
" transform="scale(0.015625)"/>
      <path id="DejaVuSerif-6c" d="M 1313 331 
L 1856 331 
L 1856 0 
L 184 0 
L 184 331 
L 738 331 
L 738 4531 
L 184 4531 
L 184 4863 
L 1313 4863 
L 1313 331 
z
" transform="scale(0.015625)"/>
     </defs>
     <use xlink:href="#DejaVuSerif-4c"/>
     <use xlink:href="#DejaVuSerif-61" x="66.40625"/>
     <use xlink:href="#DejaVuSerif-74" x="126.025391"/>
     <use xlink:href="#DejaVuSerif-65" x="166.210938"/>
     <use xlink:href="#DejaVuSerif-6e" x="225.390625"/>
     <use xlink:href="#DejaVuSerif-63" x="289.794922"/>
     <use xlink:href="#DejaVuSerif-79" x="345.800781"/>
     <use xlink:href="#DejaVuSerif-20" x="402.294922"/>
     <use xlink:href="#DejaVuSerif-42" x="434.082031"/>
     <use xlink:href="#DejaVuSerif-72" x="507.568359"/>
     <use xlink:href="#DejaVuSerif-65" x="555.371094"/>
     <use xlink:href="#DejaVuSerif-61" x="614.550781"/>
     <use xlink:href="#DejaVuSerif-6b" x="674.169922"/>
     <use xlink:href="#DejaVuSerif-64" x="734.765625"/>
     <use xlink:href="#DejaVuSerif-6f" x="798.779297"/>
     <use xlink:href="#DejaVuSerif-77" x="858.984375"/>
     <use xlink:href="#DejaVuSerif-6e" x="944.580078"/>
     <use xlink:href="#DejaVuSerif-20" x="1008.984375"/>
     <use xlink:href="#DejaVuSerif-54" x="1040.771484"/>
     <use xlink:href="#DejaVuSerif-61" x="1099.720703"/>
     <use xlink:href="#DejaVuSerif-62" x="1159.339844"/>
     <use xlink:href="#DejaVuSerif-6c" x="1223.353516"/>
     <use xlink:href="#DejaVuSerif-65" x="1255.335938"/>
    </g>
   </g>
  </g>
 </g>
</svg>
