<svg xmlns="http://www.w3.org/2000/svg" width="1520" height="712" viewBox="0 0 1520 712">
<rect x="0.0" y="0.0" width="1520.0" height="712.0" rx="0.0" ry="0.0" fill="#ffffff" stroke="none" stroke-width="0.0" />
<text x="52.0" y="44.0" font-size="28.0" text-anchor="start" font-weight="bold" fill="#222" font-family="DejaVu Serif">End-to-End Latency Breakdown on OrangePi 5</text>
<text x="52.0" y="72.0" font-size="18.0" text-anchor="start" font-weight="normal" fill="#555" font-family="DejaVu Serif">Port-Defect Test Set (n=350)</text>
<text x="320.0" y="98.0" font-size="13.0" text-anchor="start" font-weight="normal" fill="#666" font-family="DejaVu Serif">ms</text>
<line x1="320.0" y1="100.0" x2="320.0" y2="652.0" stroke="#e5e5e5" stroke-width="1.0" />
<text x="320.0" y="674.0" font-size="12.0" text-anchor="middle" font-weight="normal" fill="#666" font-family="DejaVu Serif">0</text>
<line x1="589.4" y1="100.0" x2="589.4" y2="652.0" stroke="#e5e5e5" stroke-width="1.0" />
<text x="589.4" y="674.0" font-size="12.0" text-anchor="middle" font-weight="normal" fill="#666" font-family="DejaVu Serif">20</text>
<line x1="858.9" y1="100.0" x2="858.9" y2="652.0" stroke="#e5e5e5" stroke-width="1.0" />
<text x="858.9" y="674.0" font-size="12.0" text-anchor="middle" font-weight="normal" fill="#666" font-family="DejaVu Serif">40</text>
<line x1="1128.3" y1="100.0" x2="1128.3" y2="652.0" stroke="#e5e5e5" stroke-width="1.0" />
<text x="1128.3" y="674.0" font-size="12.0" text-anchor="middle" font-weight="normal" fill="#666" font-family="DejaVu Serif">60</text>
<text x="1280.0" y="86.0" font-size="15.0" text-anchor="start" font-weight="bold" fill="#222" font-family="DejaVu Serif">Breakdown</text>
<rect x="1280.0" y="104.0" width="18.0" height="12.0" rx="2.0" ry="2.0" fill="#D7E3F4" stroke="#fff" stroke-width="0.5" />
<text x="1306.0" y="115.0" font-size="13.0" text-anchor="start" font-weight="normal" fill="#333" font-family="DejaVu Serif">Preprocess</text>
<rect x="1280.0" y="132.0" width="18.0" height="12.0" rx="2.0" ry="2.0" fill="#5B8FF9" stroke="#fff" stroke-width="0.5" />
<text x="1306.0" y="143.0" font-size="13.0" text-anchor="start" font-weight="normal" fill="#333" font-family="DejaVu Serif">Inference</text>
<rect x="1280.0" y="160.0" width="18.0" height="12.0" rx="2.0" ry="2.0" fill="#F6BD16" stroke="#fff" stroke-width="0.5" />
<text x="1306.0" y="171.0" font-size="13.0" text-anchor="start" font-weight="normal" fill="#333" font-family="DejaVu Serif">Postprocess</text>
<text x="40.0" y="138.0" font-size="18.0" text-anchor="start" font-weight="bold" fill="#222" font-family="DejaVu Serif">SADH</text>
<text x="40.0" y="158.0" font-size="12.0" text-anchor="start" font-weight="normal" fill="#666" font-family="DejaVu Serif">55.6 ms  |  18.0 FPS</text>
<rect x="320.0" y="126.0" width="27.1" height="28.0" rx="6.0" ry="6.0" fill="#D7E3F4" stroke="#ffffff" stroke-width="1.0" />
<rect x="347.1" y="126.0" width="564.2" height="28.0" rx="0.0" ry="0.0" fill="#5B8FF9" stroke="#ffffff" stroke-width="1.0" />
<rect x="911.3" y="126.0" width="157.3" height="28.0" rx="6.0" ry="6.0" fill="#F6BD16" stroke="#ffffff" stroke-width="1.0" />
<text x="351.1" y="145.0" font-size="11.0" text-anchor="start" font-weight="normal" fill="#1d3557" font-family="DejaVu Serif">2.0</text>
<text x="629.2" y="145.0" font-size="11.0" text-anchor="middle" font-weight="bold" fill="#ffffff" font-family="DejaVu Serif">41.9</text>
<text x="989.9" y="145.0" font-size="11.0" text-anchor="middle" font-weight="bold" fill="#5f4500" font-family="DejaVu Serif">11.7</text>
<text x="40.0" y="196.0" font-size="18.0" text-anchor="start" font-weight="bold" fill="#222" font-family="DejaVu Serif">B3-Lite</text>
<text x="40.0" y="216.0" font-size="12.0" text-anchor="start" font-weight="normal" fill="#666" font-family="DejaVu Serif">57.0 ms  |  17.5 FPS</text>
<rect x="320.0" y="184.0" width="27.4" height="28.0" rx="6.0" ry="6.0" fill="#D7E3F4" stroke="#ffffff" stroke-width="1.0" />
<rect x="347.4" y="184.0" width="585.0" height="28.0" rx="0.0" ry="0.0" fill="#5B8FF9" stroke="#ffffff" stroke-width="1.0" />
<rect x="932.3" y="184.0" width="155.8" height="28.0" rx="6.0" ry="6.0" fill="#F6BD16" stroke="#ffffff" stroke-width="1.0" />
<text x="351.4" y="203.0" font-size="11.0" text-anchor="start" font-weight="normal" fill="#1d3557" font-family="DejaVu Serif">2.0</text>
<text x="639.9" y="203.0" font-size="11.0" text-anchor="middle" font-weight="bold" fill="#ffffff" font-family="DejaVu Serif">43.4</text>
<text x="1010.2" y="203.0" font-size="11.0" text-anchor="middle" font-weight="bold" fill="#5f4500" font-family="DejaVu Serif">11.6</text>
<text x="40.0" y="254.0" font-size="18.0" text-anchor="start" font-weight="bold" fill="#222" font-family="DejaVu Serif">Full-Model</text>
<text x="40.0" y="274.0" font-size="12.0" text-anchor="start" font-weight="normal" fill="#666" font-family="DejaVu Serif">57.8 ms  |  17.3 FPS</text>
<rect x="320.0" y="242.0" width="25.8" height="28.0" rx="6.0" ry="6.0" fill="#D7E3F4" stroke="#ffffff" stroke-width="1.0" />
<rect x="345.8" y="242.0" width="596.8" height="28.0" rx="0.0" ry="0.0" fill="#5B8FF9" stroke="#ffffff" stroke-width="1.0" />
<rect x="942.7" y="242.0" width="156.0" height="28.0" rx="6.0" ry="6.0" fill="#F6BD16" stroke="#ffffff" stroke-width="1.0" />
<text x="349.8" y="261.0" font-size="11.0" text-anchor="start" font-weight="normal" fill="#1d3557" font-family="DejaVu Serif">1.9</text>
<text x="644.2" y="261.0" font-size="11.0" text-anchor="middle" font-weight="bold" fill="#ffffff" font-family="DejaVu Serif">44.3</text>
<text x="1020.7" y="261.0" font-size="11.0" text-anchor="middle" font-weight="bold" fill="#5f4500" font-family="DejaVu Serif">11.6</text>
<text x="40.0" y="312.0" font-size="18.0" text-anchor="start" font-weight="bold" fill="#222" font-family="DejaVu Serif">A-GFPN</text>
<text x="40.0" y="332.0" font-size="12.0" text-anchor="start" font-weight="normal" fill="#666" font-family="DejaVu Serif">58.2 ms  |  17.2 FPS</text>
<rect x="320.0" y="300.0" width="27.0" height="28.0" rx="6.0" ry="6.0" fill="#D7E3F4" stroke="#ffffff" stroke-width="1.0" />
<rect x="347.0" y="300.0" width="601.2" height="28.0" rx="0.0" ry="0.0" fill="#5B8FF9" stroke="#ffffff" stroke-width="1.0" />
<rect x="948.2" y="300.0" width="156.0" height="28.0" rx="6.0" ry="6.0" fill="#F6BD16" stroke="#ffffff" stroke-width="1.0" />
<text x="351.0" y="319.0" font-size="11.0" text-anchor="start" font-weight="normal" fill="#1d3557" font-family="DejaVu Serif">2.0</text>
<text x="647.6" y="319.0" font-size="11.0" text-anchor="middle" font-weight="bold" fill="#ffffff" font-family="DejaVu Serif">44.6</text>
<text x="1026.2" y="319.0" font-size="11.0" text-anchor="middle" font-weight="bold" fill="#5f4500" font-family="DejaVu Serif">11.6</text>
<text x="40.0" y="370.0" font-size="18.0" text-anchor="start" font-weight="bold" fill="#222" font-family="DejaVu Serif">RuleLoss-Full</text>
<text x="40.0" y="390.0" font-size="12.0" text-anchor="start" font-weight="normal" fill="#666" font-family="DejaVu Serif">58.5 ms  |  17.1 FPS</text>
<rect x="320.0" y="358.0" width="27.1" height="28.0" rx="6.0" ry="6.0" fill="#D7E3F4" stroke="#ffffff" stroke-width="1.0" />
<rect x="347.1" y="358.0" width="606.2" height="28.0" rx="0.0" ry="0.0" fill="#5B8FF9" stroke="#ffffff" stroke-width="1.0" />
<rect x="953.3" y="358.0" width="155.0" height="28.0" rx="6.0" ry="6.0" fill="#F6BD16" stroke="#ffffff" stroke-width="1.0" />
<text x="351.1" y="377.0" font-size="11.0" text-anchor="start" font-weight="normal" fill="#1d3557" font-family="DejaVu Serif">2.0</text>
<text x="650.2" y="377.0" font-size="11.0" text-anchor="middle" font-weight="bold" fill="#ffffff" font-family="DejaVu Serif">45.0</text>
<text x="1030.8" y="377.0" font-size="11.0" text-anchor="middle" font-weight="bold" fill="#5f4500" font-family="DejaVu Serif">11.5</text>
<text x="40.0" y="428.0" font-size="18.0" text-anchor="start" font-weight="bold" fill="#222" font-family="DejaVu Serif">NEU-Transfer</text>
<text x="40.0" y="448.0" font-size="12.0" text-anchor="start" font-weight="normal" fill="#666" font-family="DejaVu Serif">58.8 ms  |  17.0 FPS</text>
<rect x="320.0" y="416.0" width="27.1" height="28.0" rx="6.0" ry="6.0" fill="#D7E3F4" stroke="#ffffff" stroke-width="1.0" />
<rect x="347.1" y="416.0" width="605.7" height="28.0" rx="0.0" ry="0.0" fill="#5B8FF9" stroke="#ffffff" stroke-width="1.0" />
<rect x="952.8" y="416.0" width="158.8" height="28.0" rx="6.0" ry="6.0" fill="#F6BD16" stroke="#ffffff" stroke-width="1.0" />
<text x="351.1" y="435.0" font-size="11.0" text-anchor="start" font-weight="normal" fill="#1d3557" font-family="DejaVu Serif">2.0</text>
<text x="650.0" y="435.0" font-size="11.0" text-anchor="middle" font-weight="bold" fill="#ffffff" font-family="DejaVu Serif">45.0</text>
<text x="1032.2" y="435.0" font-size="11.0" text-anchor="middle" font-weight="bold" fill="#5f4500" font-family="DejaVu Serif">11.8</text>
<text x="40.0" y="486.0" font-size="18.0" text-anchor="start" font-weight="bold" fill="#222" font-family="DejaVu Serif">RepHFE</text>
<text x="40.0" y="506.0" font-size="12.0" text-anchor="start" font-weight="normal" fill="#666" font-family="DejaVu Serif">58.9 ms  |  17.0 FPS</text>
<rect x="320.0" y="474.0" width="26.9" height="28.0" rx="6.0" ry="6.0" fill="#D7E3F4" stroke="#ffffff" stroke-width="1.0" />
<rect x="346.9" y="474.0" width="612.2" height="28.0" rx="0.0" ry="0.0" fill="#5B8FF9" stroke="#ffffff" stroke-width="1.0" />
<rect x="959.1" y="474.0" width="154.1" height="28.0" rx="6.0" ry="6.0" fill="#F6BD16" stroke="#ffffff" stroke-width="1.0" />
<text x="350.9" y="493.0" font-size="11.0" text-anchor="start" font-weight="normal" fill="#1d3557" font-family="DejaVu Serif">2.0</text>
<text x="653.0" y="493.0" font-size="11.0" text-anchor="middle" font-weight="bold" fill="#ffffff" font-family="DejaVu Serif">45.4</text>
<text x="1036.1" y="493.0" font-size="11.0" text-anchor="middle" font-weight="bold" fill="#5f4500" font-family="DejaVu Serif">11.4</text>
<text x="40.0" y="544.0" font-size="18.0" text-anchor="start" font-weight="bold" fill="#222" font-family="DejaVu Serif">A-GFPN+RepHFE</text>
<text x="40.0" y="564.0" font-size="12.0" text-anchor="start" font-weight="normal" fill="#666" font-family="DejaVu Serif">60.0 ms  |  16.7 FPS</text>
<rect x="320.0" y="532.0" width="26.7" height="28.0" rx="6.0" ry="6.0" fill="#D7E3F4" stroke="#ffffff" stroke-width="1.0" />
<rect x="346.7" y="532.0" width="627.5" height="28.0" rx="0.0" ry="0.0" fill="#5B8FF9" stroke="#ffffff" stroke-width="1.0" />
<rect x="974.3" y="532.0" width="154.0" height="28.0" rx="6.0" ry="6.0" fill="#F6BD16" stroke="#ffffff" stroke-width="1.0" />
<text x="350.7" y="551.0" font-size="11.0" text-anchor="start" font-weight="normal" fill="#1d3557" font-family="DejaVu Serif">2.0</text>
<text x="660.5" y="551.0" font-size="11.0" text-anchor="middle" font-weight="bold" fill="#ffffff" font-family="DejaVu Serif">46.6</text>
<text x="1051.2" y="551.0" font-size="11.0" text-anchor="middle" font-weight="bold" fill="#5f4500" font-family="DejaVu Serif">11.4</text>
<text x="40.0" y="602.0" font-size="18.0" text-anchor="start" font-weight="bold" fill="#222" font-family="DejaVu Serif">YOLOv8n</text>
<text x="40.0" y="622.0" font-size="12.0" text-anchor="start" font-weight="normal" fill="#666" font-family="DejaVu Serif">63.0 ms  |  15.9 FPS</text>
<rect x="320.0" y="590.0" width="28.9" height="28.0" rx="6.0" ry="6.0" fill="#D7E3F4" stroke="#ffffff" stroke-width="1.0" />
<rect x="348.9" y="590.0" width="647.6" height="28.0" rx="0.0" ry="0.0" fill="#5B8FF9" stroke="#ffffff" stroke-width="1.0" />
<rect x="996.5" y="590.0" width="171.7" height="28.0" rx="6.0" ry="6.0" fill="#F6BD16" stroke="#ffffff" stroke-width="1.0" />
<text x="352.9" y="609.0" font-size="11.0" text-anchor="start" font-weight="normal" fill="#1d3557" font-family="DejaVu Serif">2.1</text>
<text x="672.7" y="609.0" font-size="11.0" text-anchor="middle" font-weight="bold" fill="#ffffff" font-family="DejaVu Serif">48.1</text>
<text x="1082.4" y="609.0" font-size="11.0" text-anchor="middle" font-weight="bold" fill="#5f4500" font-family="DejaVu Serif">12.7</text>
</svg>